<svg width="443" height="65" viewBox="0 0 443 65" fill="none" xmlns="http://www.w3.org/2000/svg">
<path d="M100.326 60.9271C92.6618 51.5007 84.9978 42.0713 77.3338 32.6449C77.3783 32.6033 77.4228 32.5618 77.4703 32.5202C77.6721 32.7487 77.8768 32.9801 78.0786 33.2086C83.3511 39.1487 88.6384 45.0799 93.8961 51.0349C97.2252 54.806 100.519 58.6098 103.827 62.3988C103.94 62.5293 104.103 62.6658 104.124 62.8142C104.174 63.1673 104.269 63.5827 104.135 63.8794C103.966 64.2532 103.578 64.3244 103.124 64.1464C99.4831 62.7133 95.8277 61.3188 92.1841 59.8916C84.8969 57.0373 77.6098 54.18 70.3285 51.3049C64.4923 48.9994 58.6709 46.6584 52.8257 44.3678C52.4133 44.2076 51.8317 44.1987 51.4223 44.3589C46.4049 46.3291 41.4113 48.3585 36.3999 50.3435C30.5874 52.643 24.766 54.9158 18.9446 57.1945C13.1914 59.4465 7.43525 61.6897 1.6791 63.9357C1.47141 64.0159 1.24591 64.1731 1.05601 64.1405C0.702931 64.0811 0.248967 63.9981 0.0650078 63.7547C-0.0744451 63.5678 0.0264357 63.0219 0.216329 62.7993C1.88976 60.8292 3.61364 58.9036 5.30785 56.9542C8.29867 53.5094 11.2598 50.0438 14.2655 46.6139C17.8942 42.4778 21.5556 38.3713 25.2051 34.253C25.5315 33.8851 25.8668 33.5231 26.1991 33.1582C26.2614 33.2116 26.3207 33.2679 26.383 33.3214C18.8971 42.5253 11.4082 51.7292 3.92222 60.9331C3.94892 60.9746 3.97266 61.0132 3.99936 61.0547C19.1968 54.8505 34.3942 48.6464 49.734 42.3828C49.0338 41.7894 48.4285 41.2672 47.8143 40.7569C43.9096 37.5079 39.996 34.2679 36.0943 31.013C30.356 26.2271 24.6236 21.4322 18.8971 16.6345C17.7815 15.6998 17.9358 14.8869 19.2947 14.2905C19.4312 14.2311 19.5588 14.154 19.6923 14.0976C24.7155 11.9435 29.7359 9.78051 34.768 7.64124C40.3699 5.26164 45.9747 2.89094 51.6003 0.567709C51.9979 0.40452 52.615 0.54694 53.0512 0.727932C58.8311 3.14907 64.6021 5.59395 70.3701 8.04476C74.9661 9.9971 79.5562 11.9672 84.1492 13.9285C84.5794 14.1125 85.0186 14.2756 85.428 14.4982C86.2588 14.9492 86.3449 15.8096 85.6179 16.4268C83.6418 18.1002 81.6598 19.7677 79.6719 21.4263C75.963 24.524 72.2512 27.6186 68.5334 30.7103C64.0413 34.4459 59.5432 38.1755 55.048 41.9111C54.8997 42.0357 54.7662 42.1751 54.5436 42.3888C69.8182 48.6256 85.0186 54.8327 100.219 61.0399C100.255 61.0013 100.29 60.9627 100.326 60.9271ZM69.0201 22.898C68.9459 22.9514 68.8747 23.0078 68.8005 23.0612C63.255 16.1271 57.7095 9.19302 52.1284 2.22038C46.4405 9.32654 40.8268 16.3437 35.2131 23.3579C35.1478 23.3074 35.0825 23.254 35.0173 23.2036C39.904 16.5247 44.7938 9.84875 49.6806 3.16984C49.6331 3.12237 49.5856 3.07193 49.5382 3.02446C40.1533 7.26145 30.7714 11.4955 21.2856 15.777C22.0541 16.409 22.6979 16.9431 23.3448 17.4742C28.4897 21.6993 33.6405 25.9155 38.7825 30.1466C42.8207 33.4667 46.8411 36.8106 50.8793 40.1278C52.1818 41.199 52.1789 41.1574 53.5111 40.0477C57.7956 36.4843 62.086 32.9297 66.3883 29.387C71.7171 24.9987 77.0579 20.6222 82.3927 16.2428C82.5529 16.1123 82.7191 15.9847 82.9742 15.78C73.438 11.4747 64.0591 7.24068 54.6801 3.00665C54.6416 3.05709 54.606 3.1105 54.5674 3.16094C59.3859 9.73897 64.2015 16.32 69.0201 22.898Z" fill="white"/>
<path d="M158.31 31.45C164.088 31.45 168.87 29.9572 168.87 25.4236V24.5113C168.87 22.2998 167.544 20.337 165.608 19.5077C163.812 18.706 161.324 18.4849 158.31 18.4849C154.413 18.4849 152.339 18.402 150.874 17.7662C149.879 17.3238 149.741 17.1856 149.741 16.0522V15.14C149.741 13.039 152.256 12.6796 158.31 12.6796C164.033 12.6796 165.277 13.509 165.277 15.6652V17.9873H168.87V15.6652C168.87 13.6472 167.82 11.6015 165.968 10.5511C163.729 9.27942 161.13 9.11356 156.735 9.11356C150.985 9.11356 146.175 10.6063 146.175 15.14V16.0522C146.175 18.2637 147.502 20.2265 149.437 21.0558C151.234 21.8298 153.722 22.051 156.735 22.051C160.633 22.051 162.678 22.1339 164.171 22.7697C165.166 23.212 165.277 23.3779 165.277 24.5113V25.4236C165.277 27.5245 162.761 27.8839 156.735 27.8839C151.012 27.8839 149.741 27.0546 149.741 24.8983V22.5762H146.175V24.8983C146.175 26.9163 147.225 28.962 149.077 30.0125C151.317 31.2841 153.915 31.45 158.31 31.45ZM207.507 21.0834C207.286 20.8346 207.009 20.6135 206.622 20.4753C206.982 20.337 207.258 20.0883 207.507 19.7842C207.728 19.4801 208.005 19.1207 208.364 18.706C208.723 18.2637 209.083 17.7938 209.47 17.2686L215.22 9.66644H210.714L206.622 15.1123C205.765 16.3563 204.853 17.2686 203.83 17.8214C202.807 18.3743 200.983 18.6508 198.357 18.6508H194.652V9.66644H191.086V31.2288H194.652V22.2721H198.357C200.983 22.2721 202.807 22.5486 203.83 23.0738C204.853 23.6267 205.765 24.5389 206.622 25.7829L210.714 31.2288H215.22L209.47 23.6267C209.083 23.1015 208.723 22.6315 208.364 22.1892C208.005 21.7745 207.728 21.3875 207.507 21.0834ZM249.378 31.2288V21.8575L261.458 9.66644H256.427L247.581 18.5955L238.735 9.66644H233.704L245.784 21.8575V31.2288H249.378ZM305.9 31.2288L303.467 26.087C302.776 24.843 302.5 23.9861 301.56 23.1291C303.55 22.2445 305.043 20.7794 305.098 17.3515V16.2181C305.098 12.7902 302.279 9.66644 294.732 9.66644H282.402V31.2288H285.969V23.9031H294.732C298.132 23.9031 298.934 25.3683 300.095 27.6904L301.864 31.2288H305.9ZM294.732 20.337H285.969V13.2325H294.732C300.454 13.2325 301.505 14.3659 301.505 16.2181V17.3515C301.505 19.2313 300.454 20.337 294.732 20.337ZM339.422 32.0028C346.582 32.0028 351.254 29.3214 351.254 22.1063V19.563C351.254 12.3756 346.582 9.66644 339.422 9.66644H337.625C330.493 9.66644 325.821 12.3479 325.821 19.563V22.1063C325.821 25.4512 326.927 28.2156 329.028 29.819C331.682 31.8646 334.889 32.0028 339.422 32.0028ZM339.422 28.4368H337.625C331.488 28.4368 329.387 26.9993 329.387 22.1063V19.563C329.387 16.9092 329.94 15.6376 331.212 14.67C332.926 13.3707 335.082 13.2325 339.422 13.2325C345.587 13.2325 347.66 14.67 347.66 19.563V22.1063C347.66 26.9993 345.587 28.4368 339.422 28.4368ZM385.495 32.0028C392.655 32.0028 397.327 29.3214 397.327 22.1063V19.563C397.327 12.3756 392.655 9.66644 385.495 9.66644H383.698C376.566 9.66644 371.894 12.3479 371.894 19.563V22.1063C371.894 25.4512 373 28.2156 375.101 29.819C377.755 31.8646 380.961 32.0028 385.495 32.0028ZM385.495 28.4368H383.698C377.561 28.4368 375.46 26.9993 375.46 22.1063V19.563C375.46 16.9092 376.013 15.6376 377.285 14.67C378.999 13.3707 381.155 13.2325 385.495 13.2325C391.66 13.2325 393.733 14.67 393.733 19.563V22.1063C393.733 26.9993 391.66 28.4368 385.495 28.4368ZM430.572 31.2288V13.2325H440.994V9.66644H416.585V13.2325H427.006V31.2288H430.572Z" fill="white"/>
<path opacity="0.3" d="M326.486 58.9699L321.452 50.3786H320.45L315.405 58.9699H317.057L318.489 56.5467H323.413L324.833 58.9699H326.486ZM322.575 55.1148H319.315L320.945 52.3392L322.575 55.1148ZM340.798 58.9699V57.538H332.912V55.3792H339.719V53.9583H332.912V51.7995H340.798V50.3786H331.491V58.9699H340.798ZM355.265 58.9699L354.296 56.9212C354.02 56.4255 353.91 56.0841 353.536 55.7426C354.329 55.3902 354.924 54.8064 354.946 53.4406V52.989C354.946 51.6232 353.822 50.3786 350.815 50.3786H345.903V58.9699H347.324V56.051H350.815C352.17 56.051 352.489 56.6348 352.952 57.56L353.657 58.9699H355.265ZM350.815 54.6302H347.324V51.7995H350.815C353.095 51.7995 353.514 52.2511 353.514 52.989V53.4406C353.514 54.1896 353.095 54.6302 350.815 54.6302ZM365.238 59.2783C368.091 59.2783 369.952 58.2099 369.952 55.3351V54.3218C369.952 51.458 368.091 50.3786 365.238 50.3786H364.522C361.68 50.3786 359.819 51.447 359.819 54.3218V55.3351C359.819 56.6679 360.26 57.7693 361.097 58.4081C362.154 59.2232 363.432 59.2783 365.238 59.2783ZM365.238 57.8574H364.522C362.077 57.8574 361.24 57.2847 361.24 55.3351V54.3218C361.24 53.2644 361.46 52.7577 361.967 52.3722C362.65 51.8545 363.509 51.7995 365.238 51.7995C367.694 51.7995 368.52 52.3722 368.52 54.3218V55.3351C368.52 57.2847 367.694 57.8574 365.238 57.8574ZM379.76 59.058C382.062 59.058 383.967 58.4632 383.967 56.6568V56.2934C383.967 55.4122 383.439 54.6302 382.668 54.2997C381.952 53.9803 380.961 53.8922 379.76 53.8922C378.207 53.8922 377.381 53.8592 376.797 53.6058C376.401 53.4296 376.345 53.3745 376.345 52.9229V52.5595C376.345 51.7224 377.348 51.5792 379.76 51.5792C382.04 51.5792 382.536 51.9096 382.536 52.7687V53.6939H383.967V52.7687C383.967 51.9647 383.549 51.1496 382.811 50.7311C381.919 50.2244 380.883 50.1583 379.132 50.1583C376.841 50.1583 374.925 50.7531 374.925 52.5595V52.9229C374.925 53.8041 375.453 54.5861 376.224 54.9166C376.94 55.225 377.932 55.3131 379.132 55.3131C380.685 55.3131 381.5 55.3461 382.095 55.5994C382.492 55.7757 382.536 55.8418 382.536 56.2934V56.6568C382.536 57.4939 381.533 57.6371 379.132 57.6371C376.852 57.6371 376.345 57.3067 376.345 56.4476V55.5223H374.925V56.4476C374.925 57.2516 375.343 58.0667 376.081 58.4852C376.973 58.9919 378.009 59.058 379.76 59.058ZM390.856 58.9699V55.8858H394.348C397.333 55.8858 398.478 54.6963 398.478 53.3525V52.9119C398.478 51.5682 397.333 50.3786 394.348 50.3786L389.436 50.3896V58.9699H390.856ZM394.348 54.4539H390.856V51.7995H394.348C396.639 51.7995 397.047 52.218 397.047 52.9119V53.3525C397.047 54.0354 396.639 54.4539 394.348 54.4539ZM412.538 58.9699L407.504 50.3786H406.502L401.457 58.9699H403.109L404.541 56.5467H409.465L410.886 58.9699H412.538ZM408.628 55.1148H405.367L406.997 52.3392L408.628 55.1148ZM422.279 59.2783C425.176 59.2783 426.806 58.2429 426.806 56.0841H425.374C425.374 56.9652 425.275 57.1525 424.835 57.4058C424.152 57.7913 423.326 57.8574 421.596 57.8574C419.305 57.8574 418.501 57.3067 418.501 55.3351V54.3218C418.501 53.2644 418.722 52.7467 419.195 52.3612C419.834 51.8545 420.638 51.7995 422.279 51.7995C424.758 51.7995 425.374 52.2841 425.374 53.5728H426.806C426.806 52.3061 426.333 51.469 425.54 51.0174C424.559 50.4557 423.447 50.3786 421.596 50.3786C418.854 50.3786 417.081 51.469 417.081 54.3218V55.3351C417.081 56.6568 417.499 57.7583 418.303 58.4081C419.316 59.2122 420.55 59.2783 422.279 59.2783ZM441.383 58.9699V57.538H433.497V55.3792H440.304V53.9583H433.497V51.7995H441.383V50.3786H432.076V58.9699H441.383Z" fill="white"/>
<line x1="144.295" y1="54.8776" x2="300.295" y2="54.8776" stroke="#7A7A7A" stroke-width="0.490992"/>
</svg>
